<svg width="935" height="137" viewBox="0 0 935 137" fill="none" xmlns="http://www.w3.org/2000/svg">
<g clip-path="url(#clip0_154_20)">
<path d="M139.474 20.0078C130.497 19.0513 123.97 18.5731 119.895 18.5731C115.82 18.5731 113.448 18.6847 112.78 18.9079C112.111 19.131 111.777 19.5933 111.777 20.2947C111.777 20.9961 112.159 21.5381 112.923 21.9207C113.687 22.3032 116.091 22.9409 120.134 23.8335C124.177 24.7262 127.488 25.6029 130.067 26.4637C132.645 27.3245 134.969 28.536 137.039 30.0982C139.108 31.6604 140.477 33.5732 141.146 35.8368C141.814 38.1004 142.149 41.145 142.149 44.9708C142.149 52.8773 140.047 58.5203 135.845 61.8997C131.643 65.2791 125.307 66.9688 116.839 66.9688C112.764 66.9688 108.482 66.6819 103.993 66.108C99.504 65.5342 96.0497 64.9603 93.6302 64.3865L89.9053 63.5257L90.8604 46.5967C100.602 47.9995 108.593 48.7009 114.833 48.7009C118.144 48.7009 119.8 47.9676 119.8 46.5011C119.8 45.8635 119.418 45.4012 118.653 45.1142C117.889 44.8273 115.82 44.4288 112.445 43.9187C103.531 42.5159 97.4664 40.3321 94.251 37.3671C91.0355 34.4022 89.4278 29.5403 89.4278 22.7814C89.4278 14.1735 91.4971 8.27548 95.6359 5.08736C99.7746 1.89924 106.142 0.305176 114.738 0.305176C120.786 0.305176 127.886 0.910919 136.036 2.12241L140.047 2.79191L139.474 20.0078Z" fill="#121F32"/>
<path d="M180.95 66.03V43.7312H168.306V66.03H145.914V2.18311H168.306V25.7207H180.95V2.18311H203.342V66.03H180.95Z" fill="#121F32"/>
<path d="M229.552 33.637C229.552 39.0646 230.08 42.9757 231.135 45.3702C232.19 47.7647 234.396 48.962 237.753 48.962C241.11 48.962 243.3 47.7807 244.323 45.4181C245.346 43.0555 245.858 39.1125 245.858 33.5891C245.858 28.0657 245.362 24.1387 244.371 21.808C243.38 19.4774 241.19 18.312 237.801 18.312C234.412 18.312 232.19 19.5093 231.135 21.9038C230.08 24.2983 229.552 28.2094 229.552 33.637ZM268.302 33.637C268.302 45.3223 265.872 53.7989 261.012 59.0669C256.153 64.3348 248.399 66.9688 237.753 66.9688C227.106 66.9688 219.337 64.3189 214.446 59.019C209.554 53.7191 207.108 45.2425 207.108 33.5891C207.108 21.9357 209.538 13.4751 214.398 8.20712C219.257 2.93916 227.026 0.305176 237.705 0.305176C248.384 0.305176 256.153 2.93916 261.012 8.20712C265.872 13.4751 268.302 21.9517 268.302 33.637Z" fill="#121F32"/>
<path d="M298.337 52.4983H295.351V66.03H273.009V2.18311H298.337C308.545 2.18311 315.976 3.93016 320.631 7.42427C325.285 10.9184 327.613 17.4778 327.613 27.1024C327.613 36.7271 325.269 43.3659 320.583 47.0189C315.896 50.6718 308.481 52.4983 298.337 52.4983ZM295.351 35.0595H297.374C300.134 35.0595 302.109 34.456 303.296 33.2489C304.484 32.0418 305.078 29.9771 305.078 27.0548C305.078 24.1325 304.516 22.163 303.393 21.1466C302.269 20.1301 300.263 19.6219 297.374 19.6219H295.351V35.0595Z" fill="#121F32"/>
<path d="M359.507 66.03H331.378V2.18311H358.547C369.619 2.18311 377.588 4.66075 382.452 9.61603C387.316 14.5713 389.748 22.4966 389.748 33.3918C389.748 44.2871 387.412 52.4506 382.74 57.8824C378.068 63.3141 370.323 66.03 359.507 66.03ZM367.283 34.4877C367.283 28.7701 366.691 24.9583 365.507 23.0525C364.323 21.1466 361.683 20.1936 357.587 20.1936H353.651V48.0194H357.587C360.915 48.0194 363.379 47.1936 364.979 45.5418C366.515 43.89 367.283 40.2054 367.283 34.4877Z" fill="#121F32"/>
<path d="M394.455 66.03V2.18311H442.469V19.8125H416.645V25.2442H436.73V42.683H416.645V48.4006H442.469V66.03H394.455Z" fill="#121F32"/>
<path d="M501.78 2.18311L489.224 66.03H456.445L443.41 2.18311H466.988L471.972 43.7312H473.697L478.202 2.18311H501.78Z" fill="#121F32"/>
<path d="M521.55 66.03L535.698 2.18311H569.251L583.685 66.03H561.316L559.5 58.6924H544.874L543.345 66.03H521.55ZM551.375 19.5266L547.742 41.8253H557.206L553.765 19.5266H551.375Z" fill="#121F32"/>
<path d="M629.816 66.03H586.509V2.18311H608.836V48.0194H629.816V66.03Z" fill="#121F32"/>
<path d="M675.946 66.03H632.64V2.18311H654.967V48.0194H675.946V66.03Z" fill="#121F32"/>
<path d="M679.712 66.03V2.18311H702.307V66.03H679.712Z" fill="#121F32"/>
<path d="M705.131 66.03L719.279 2.18311H752.832L767.266 66.03H744.898L743.081 58.6924H728.456L726.926 66.03H705.131ZM734.956 19.5266L731.323 41.8253H740.787L737.346 19.5266H734.956Z" fill="#121F32"/>
<path d="M769.149 66.03V2.18311H791.024L805.799 26.3877H807.143V2.18311H829.401V66.03H807.43L792.847 40.0148H791.408V66.03H769.149Z" fill="#121F32"/>
<path d="M882.122 64.4785C875.35 66.1387 868.418 66.9688 861.326 66.9688C854.234 66.9688 848.772 65.9631 844.938 63.9517C841.105 61.9403 838.341 58.572 836.648 53.8468C834.955 49.1216 834.109 42.3212 834.109 33.4454C834.109 20.7385 836.073 12.0384 840.003 7.34509C843.932 2.65181 851.423 0.305176 862.476 0.305176C867.076 0.305176 872.507 0.943717 878.768 2.2208L882.122 2.89127L881.547 20.0361C876.308 19.3975 871.469 19.0783 867.028 19.0783C862.588 19.0783 859.729 19.9243 858.451 21.6165C857.173 23.3086 856.534 26.8046 856.534 32.1045C856.534 37.4044 856.838 41.076 857.445 43.1193C858.052 45.1627 859.026 46.5196 860.368 47.19C861.709 47.8605 863.882 48.1957 866.884 48.1957L881.835 47.621L882.122 64.4785Z" fill="#121F32"/>
<path d="M886.829 66.03V2.18311H934.843V19.8125H909.019V25.2442H929.104V42.683H909.019V48.4006H934.843V66.03H886.829Z" fill="#121F32"/>
<path d="M32.7053 0.384627L59.4904 12.4734C61.0195 13.1635 62 14.6693 62 16.3272V50.9603C62 52.6321 61.0032 54.1478 59.455 54.8299L32.6698 66.6312C31.5507 67.1242 30.2713 67.1229 29.1532 66.6274L2.5366 54.8326C0.992946 54.1486 0 52.6353 0 50.9668V16.3207C0 14.6661 0.97663 13.1628 2.50109 12.4708L29.1178 0.388492C30.2559 -0.128144 31.5661 -0.129556 32.7053 0.384627ZM30.9102 7.69714C29.9626 7.69714 29.0252 7.88989 28.1566 8.26334L6.4485 17.5964C5.92606 17.821 5.5883 18.3295 5.5883 18.8914V43.305C5.5883 43.5001 5.7487 43.6582 5.94656 43.6582C6.12368 43.6582 6.27421 43.5306 6.30077 43.358L8.85644 26.7418C8.96265 26.0512 9.5648 25.5408 10.2733 25.5408H24.9946C25.7266 25.5408 26.341 26.0848 26.4194 26.8024L29.9162 58.825C29.9708 59.3257 30.3995 59.7052 30.9102 59.7052C31.4213 59.7052 31.8505 59.326 31.9063 58.8252L35.4798 26.7991C35.5597 26.083 36.1734 25.5408 36.9042 25.5408H51.6241C52.3345 25.5408 52.9377 26.0539 53.0417 26.7467L55.5195 43.2449C55.5484 43.4379 55.7306 43.5711 55.9263 43.5426C56.102 43.5169 56.2321 43.3683 56.2321 43.1932V18.8914C56.2321 18.3295 55.8944 17.821 55.3719 17.5964L33.6638 8.26334C32.7952 7.88989 31.8578 7.69714 30.9102 7.69714Z" fill="url(#paint0_linear_154_20)"/>
<path d="M668.991 137L681.552 82.885H695.535L697.115 125.071L718.208 82.885H732.428L719.946 137H711.098L721.921 90.548H721.289L699.248 134.788H690.716L689.057 90.548H688.504L677.839 137H668.991ZM740.429 124.913C740.429 126.651 741.034 128.02 742.246 129.021C743.457 130.022 744.958 130.522 746.749 130.522C750.541 130.522 754.28 130.206 757.967 129.574L760.021 129.179L759.152 135.657C754.359 137.132 749.514 137.869 744.616 137.869C736.084 137.869 731.818 133.603 731.818 125.071C731.818 117.592 733.477 111.141 736.795 105.716C738.48 102.977 740.745 100.792 743.589 99.159C746.433 97.5263 749.672 96.71 753.306 96.71C761.943 96.71 766.262 100.318 766.262 107.533C766.262 112.378 764.524 115.749 761.048 117.645C757.624 119.541 752.015 120.489 744.221 120.489H740.903C740.587 121.648 740.429 123.122 740.429 124.913ZM745.643 114.011C750.067 114.011 753.2 113.537 755.044 112.589C756.887 111.641 757.809 109.982 757.809 107.612C757.809 104.979 756.176 103.662 752.911 103.662C747.433 103.662 743.773 107.112 741.93 114.011H745.643ZM795.154 109.192C795.154 105.769 793.758 104.057 790.967 104.057C789.914 104.057 788.597 104.61 787.017 105.716C785.437 106.769 784.12 107.849 783.067 108.955L781.566 110.614L775.483 137H766.951L776.036 97.5H784.252L783.383 102.635C783.541 102.477 783.725 102.266 783.936 102.003C784.199 101.74 784.726 101.266 785.516 100.581C786.359 99.8437 787.228 99.2117 788.123 98.685C790.335 97.3157 792.521 96.631 794.68 96.631C796.892 96.631 798.683 97.1577 800.052 98.211C801.474 99.2117 802.343 100.239 802.659 101.292L803.212 102.872C803.686 102.398 804.318 101.819 805.108 101.134C805.951 100.449 807.478 99.5277 809.69 98.369C811.902 97.2103 813.956 96.631 815.852 96.631C819.065 96.631 821.435 97.6053 822.962 99.554C824.489 101.45 825.253 103.715 825.253 106.348C825.253 108.981 824.753 112.668 823.752 117.408L819.249 137H810.638L815.22 117.961C816.168 113.537 816.642 110.693 816.642 109.429C816.642 105.848 815.325 104.057 812.692 104.057C811.586 104.057 810.269 104.531 808.742 105.479C807.215 106.427 805.977 107.375 805.029 108.323L803.607 109.745C803.344 112.589 802.922 115.143 802.343 117.408L797.84 137H789.308L793.732 117.961C794.68 113.537 795.154 110.614 795.154 109.192ZM855.304 96.631C862.835 96.631 866.601 100.792 866.601 109.113C866.601 113.958 865.863 118.514 864.389 122.78C862.914 127.046 860.597 130.627 857.437 133.524C854.277 136.368 850.537 137.79 846.219 137.79C841.479 137.79 836.475 137.211 831.209 136.052L828.444 135.499L840.926 81.068H849.537L844.797 101.529C846.008 100.318 847.667 99.2117 849.774 98.211C851.88 97.1577 853.724 96.631 855.304 96.631ZM838.319 129.653C841.215 130.232 843.743 130.522 845.903 130.522C848.115 130.522 850.011 129.758 851.591 128.231C853.223 126.651 854.461 124.729 855.304 122.464C856.989 117.829 857.832 113.669 857.832 109.982C857.832 108.139 857.489 106.69 856.805 105.637C856.12 104.531 854.961 103.978 853.329 103.978C851.749 103.978 850.142 104.399 848.51 105.242C846.877 106.085 845.56 106.927 844.56 107.77L843.059 109.113L838.319 129.653ZM879.45 124.913C879.45 126.651 880.056 128.02 881.267 129.021C882.478 130.022 883.979 130.522 885.77 130.522C889.562 130.522 893.301 130.206 896.988 129.574L899.042 129.179L898.173 135.657C893.38 137.132 888.535 137.869 883.637 137.869C875.105 137.869 870.839 133.603 870.839 125.071C870.839 117.592 872.498 111.141 875.816 105.716C877.501 102.977 879.766 100.792 882.61 99.159C885.454 97.5263 888.693 96.71 892.327 96.71C900.964 96.71 905.283 100.318 905.283 107.533C905.283 112.378 903.545 115.749 900.069 117.645C896.646 119.541 891.037 120.489 883.242 120.489H879.924C879.608 121.648 879.45 123.122 879.45 124.913ZM884.664 114.011C889.088 114.011 892.222 113.537 894.065 112.589C895.908 111.641 896.83 109.982 896.83 107.612C896.83 104.979 895.197 103.662 891.932 103.662C886.455 103.662 882.794 107.112 880.951 114.011H884.664ZM905.972 137L915.057 97.5H923.51L922.167 103.267C923.958 101.845 926.117 100.476 928.645 99.159C931.226 97.7897 933.464 96.947 935.36 96.631L932.911 105.479C930.541 106.164 927.144 107.559 922.72 109.666L920.666 110.614L914.504 137H905.972Z" fill="#121F32"/>
</g>
<defs>
<linearGradient id="paint0_linear_154_20" x1="31" y1="0" x2="31" y2="78.5" gradientUnits="userSpaceOnUse">
<stop stop-color="#FF9561"/>
<stop offset="1" stop-color="#E5414C"/>
</linearGradient>
<clipPath id="clip0_154_20">
<rect width="935" height="137" fill="white"/>
</clipPath>
</defs>
</svg>
